<?xml version="1.0" encoding="UTF-8" standalone="no"?>
<!-- Uploaded to: SVG Repo, www.svgrepo.com, Transformed by: SVG Repo Mixer Tools -->

<svg
   width="549.99976"
   height="399.99976"
   viewBox="0 0 21.99999 15.99999"
   fill="none"
   version="1.1"
   id="svg2"
   xmlns="http://www.w3.org/2000/svg"
   xmlns:svg="http://www.w3.org/2000/svg">
  <defs
     id="defs2" />
  <path
     d="M 21.995481,11.08257 H 0.00422992 c -0.016444,0.74751 0.015416,1.492713 0.089219,2.23586 1.90513998,1.3367 3.75143298,2.148622 5.56656298,2.679921 0.4482,-0.579398 0.847944,-1.195387 1.192344,-1.844687 -0.6559,-0.2341 -1.284,-0.523016 -1.8775,-0.858516 0.1575,-0.1095 0.311434,-0.224131 0.460234,-0.342031 3.62,1.5907 7.5530441,1.5907 11.1298441,0 0.1505,0.1179 0.304456,0.232531 0.460156,0.342031 -0.5952,0.3371 -1.225059,0.625957 -1.880859,0.860157 0.3443,0.6476 0.742287,1.265187 1.192187,1.844687 1.8169,-0.5313 3.664878,-1.343262 5.570078,-2.681562 0.07659,-0.76202 0.105564,-1.507077 0.08898,-2.23586 z"
     style="fill:#5865f2"
     id="path7" />
  <path
     d="M 21.198445,6.3486724 H 0.80196082 c -0.3516822,1.082219 -0.5781881,2.158376 -0.6978906,3.229375 H 5.5100079 c -0.09179,-0.242917 -0.142422,-0.50773 -0.142422,-0.784297 0,-1.1606 0.872111,-2.115392 1.977812,-2.115391 1.1057,0 1.996813,0.953091 1.977813,2.115391 4.29e-4,0.276567 -0.04891,0.54138 -0.139219,0.784297 h 3.6351561 c -0.09179,-0.242917 -0.142421,-0.50773 -0.142422,-0.784297 0,-1.1606 0.872113,-2.115392 1.977813,-2.115391 1.1057,0 1.996912,0.953091 1.977813,2.115391 0,0.276567 -0.04952,0.54138 -0.139922,0.784297 h 5.402265 c -0.125018,-1.114645 -0.359847,-2.190124 -0.69625,-3.229375 z"
     style="fill:#5865f2"
     id="path9" />
  <path
     d="M 7.8974299,4.7751179e-8 C 6.3037299,0.25903005 4.7792529,0.71570945 3.3551639,1.3433594 2.5537607,2.4811182 1.9153226,3.6110064 1.4197733,4.7339844 H 20.582586 C 20.063797,3.5562784 19.410521,2.4265258 18.636102,1.34 17.212002,0.71401005 15.689252,0.25903005 14.097352,4.7751179e-8 13.901852,0.33209005 13.673445,0.77881065 13.515945,1.1341406 c -1.692301,-0.23909985 -3.369034,-0.23909985 -5.0302341,0 C 8.3283109,0.77881075 8.0946299,0.33209005 7.8974299,4.7751179e-8 Z"
     style="fill:#5865f2"
     id="path8" />
</svg>
